<?xml version="1.0" standalone="no"?>
<!DOCTYPE svg PUBLIC "-//W3C//DTD SVG 20010904//EN"
 "http://www.w3.org/TR/2001/REC-SVG-20010904/DTD/svg10.dtd">
<svg version="1.0" xmlns="http://www.w3.org/2000/svg"
 width="512.000000pt" height="512.000000pt" viewBox="0 0 512.000000 512.000000"
 preserveAspectRatio="xMidYMid meet">
<metadata>
Created by potrace 1.16, written by Peter Selinger 2001-2019
</metadata>
<g transform="translate(0.000000,512.000000) scale(0.100000,-0.100000)"
fill="#000000" stroke="none">
<path d="M1555 4600 c-125 -17 -240 -71 -336 -157 -45 -41 -112 -134 -134
-187 -14 -33 -16 -34 -82 -38 -76 -4 -159 -37 -223 -88 -33 -26 -46 -30 -102
-30 -345 0 -569 -371 -414 -686 65 -130 200 -231 341 -254 82 -13 693 -13 732
0 17 6 36 22 43 35 16 31 6 87 -21 111 -20 18 -46 19 -383 24 -350 5 -362 6
-411 28 -63 29 -110 73 -143 137 -36 69 -38 187 -4 256 31 64 86 117 149 146
46 21 64 24 153 21 l100 -2 47 46 c79 76 120 89 233 74 73 -10 100 10 129 97
118 348 569 398 767 85 33 -51 51 -114 60 -199 10 -103 44 -129 145 -111 92
17 178 -5 248 -63 l31 -27 -95 -48 c-53 -27 -126 -70 -163 -96 -87 -62 -215
-192 -272 -276 l-45 -67 -167 -1 c-100 0 -177 -4 -191 -11 -51 -23 -67 -103
-28 -142 20 -20 33 -22 155 -25 l134 -4 -10 -32 -10 -32 -132 0 c-149 0 -217
-14 -334 -69 -84 -40 -127 -70 -200 -139 l-53 -51 -132 3 c-140 4 -223 -6
-322 -40 -148 -51 -265 -127 -376 -246 -116 -124 -193 -271 -225 -431 -22
-114 -15 -324 15 -429 78 -268 275 -488 528 -592 153 -62 165 -63 684 -67
l476 -4 12 -55 c42 -186 200 -356 394 -421 l82 -28 822 0 823 0 26 26 c42 43
30 114 -23 138 -17 8 -252 11 -797 11 -478 0 -794 4 -826 10 -131 25 -244 114
-303 237 -30 63 -32 75 -32 174 0 101 1 108 38 181 63 129 167 205 313 229 53
8 84 9 123 0 125 -27 171 -2 171 91 1 156 65 305 179 418 122 120 253 174 421
173 155 -1 297 -61 409 -173 70 -69 109 -133 151 -244 16 -44 35 -76 52 -89
26 -19 31 -20 97 -7 122 23 221 -8 308 -97 29 -29 63 -57 75 -62 13 -4 55 -3
96 2 155 22 302 -39 398 -166 187 -249 45 -608 -265 -667 -30 -5 -130 -10
-223 -10 l-170 0 -29 -29 c-38 -39 -40 -88 -3 -122 26 -24 27 -24 232 -24 163
1 221 5 271 18 334 90 525 436 421 764 l-22 71 32 47 c42 62 104 195 125 270
22 80 31 302 16 391 -33 187 -135 373 -274 501 -187 170 -431 253 -684 234
-78 -7 -83 -4 -83 45 0 78 -61 287 -114 392 -24 48 -57 72 -97 72 -29 0 -79
-53 -79 -83 0 -14 18 -69 40 -124 51 -127 70 -210 79 -349 10 -158 30 -177
160 -148 100 23 256 23 341 1 201 -54 369 -186 464 -366 107 -205 107 -450 0
-663 l-35 -70 -32 29 c-119 109 -257 163 -421 163 l-89 0 -42 39 c-82 76 -205
121 -326 121 l-66 0 -21 51 c-63 150 -205 299 -355 373 -131 64 -198 80 -342
80 -94 0 -137 -5 -198 -22 -84 -24 -176 -67 -245 -114 -146 -100 -270 -290
-306 -468 l-13 -65 -94 -7 c-150 -11 -266 -59 -370 -155 -93 -87 -147 -176
-179 -301 l-11 -43 -477 3 -477 4 -80 27 c-280 95 -465 318 -505 606 -46 337
172 678 500 782 123 39 244 42 412 13 37 -6 40 -5 125 82 168 171 336 223 561
177 118 -25 126 -19 173 117 46 135 60 166 115 251 147 230 398 396 668 444
306 53 611 -37 845 -249 87 -79 109 -88 164 -67 33 13 51 66 37 108 -12 33
-148 157 -233 211 -123 79 -260 135 -412 168 -89 19 -346 24 -425 7 l-45 -9
-59 63 c-32 35 -78 75 -102 89 -63 37 -156 64 -220 64 l-53 0 -11 43 c-76 308
-360 507 -665 467z"/>
</g>
</svg>
